<?xml version="1.0" encoding="UTF-8" standalone="no"?>
<svg
   xmlns:dc="http://purl.org/dc/elements/1.1/"
   xmlns:cc="http://creativecommons.org/ns#"
   xmlns:rdf="http://www.w3.org/1999/02/22-rdf-syntax-ns#"
   xmlns:svg="http://www.w3.org/2000/svg"
   xmlns="http://www.w3.org/2000/svg"
   xmlns:xlink="http://www.w3.org/1999/xlink"
   xmlns:sodipodi="http://sodipodi.sourceforge.net/DTD/sodipodi-0.dtd"
   xmlns:inkscape="http://www.inkscape.org/namespaces/inkscape"
   inkscape:version="1.0 (1.0+r73+1)"
   sodipodi:docname="logo.svg"
   id="svg12"
   version="1.1"
   viewBox="0 0 2458 512"
   height="512px"
   width="2458px">
  <metadata
     id="metadata18">
    <rdf:RDF>
      <cc:Work
         rdf:about="">
        <dc:format>image/svg+xml</dc:format>
        <dc:type
           rdf:resource="http://purl.org/dc/dcmitype/StillImage" />
        <dc:title>on_white</dc:title>
      </cc:Work>
    </rdf:RDF>
  </metadata>
  <defs
     id="defs16">
    <rect
       id="rect95"
       height="22.771559"
       width="74.488449"
       y="-196.00359"
       x="-96.196061" />
    <linearGradient
       data-v-fde0c5aa=""
       gradientTransform="rotate(25)"
       id="40e221f5-a657-4248-abe4-724ce42de324"
       x1="0%"
       y1="0%"
       x2="100%"
       y2="0%">
      <stop
         data-v-fde0c5aa=""
         offset="0%"
         stop-color="#83E3D4"
         stop-opacity="1"
         id="stop45" />
      <stop
         data-v-fde0c5aa=""
         offset="100%"
         stop-color="#49BBA9"
         stop-opacity="1"
         id="stop47" />
    </linearGradient>
    <linearGradient
       gradientUnits="userSpaceOnUse"
       y2="6.0132617"
       x2="90.05986"
       y1="6.0132617"
       x1="9.7222118"
       gradientTransform="scale(0.96212674,1.0393641)"
       id="linearGradient78"
       xlink:href="#40e221f5-a657-4248-abe4-724ce42de324"
       inkscape:collect="always" />
    <linearGradient
       gradientUnits="userSpaceOnUse"
       y2="6.0132617"
       x2="90.05986"
       y1="6.0132617"
       x1="9.7222118"
       gradientTransform="scale(0.96212674,1.0393641)"
       id="linearGradient80"
       xlink:href="#40e221f5-a657-4248-abe4-724ce42de324"
       inkscape:collect="always" />
  </defs>
  <sodipodi:namedview
     inkscape:current-layer="svg12"
     inkscape:window-maximized="1"
     inkscape:window-y="795"
     inkscape:window-x="40"
     inkscape:cy="-415.0994"
     inkscape:cx="1207.3325"
     inkscape:zoom="0.25040683"
     showgrid="false"
     id="namedview14"
     inkscape:window-height="1016"
     inkscape:window-width="1880"
     inkscape:pageshadow="2"
     inkscape:pageopacity="0"
     guidetolerance="10"
     gridtolerance="10"
     objecttolerance="10"
     borderopacity="1"
     bordercolor="#666666"
     pagecolor="#ffffff" />
  <!-- Generator: Sketch 60.1 (88133) - https://sketch.com -->
  <title
     id="title2">on_white</title>
  <desc
     id="desc4">Created with Sketch.</desc>
  <g
     transform="matrix(0.12460423,0,0,0.12460423,2135.3912,425.80468)"
     id="g34">
    <g
       id="Logo"
       stroke="none"
       stroke-width="1"
       fill="none"
       fill-rule="evenodd">
      <g
         id="on_white"
         fill-rule="nonzero">
        <g
           id="woot-log">
          <circle
             id="Oval"
             fill="#47a7f6"
             cx="256"
             cy="256"
             r="256" />
          <path
             d="M 362.80795,368.80795 H 244.12296 c -65.42355,0 -118.66601,-53.24614 -118.66601,-118.68618 0,-65.41868 53.24246,-118.66482 118.66719,-118.66482 65.44135,0 118.68381,53.24614 118.68381,118.66482 z"
             id="Fill-1"
             stroke="#ffffff"
             stroke-width="6"
             fill="#ffffff" />
        </g>
        <path
           d="m 772.98216,256.84801 c -4.3246,-6.63105 -10.8114,-12.18087 -19.4606,-16.64962 -8.6492,-4.46876 -17.87487,-6.7031 -27.6773,-6.7031 -10.66734,0 -20.10924,2.01812 -28.32598,6.05441 -8.21673,4.03629 -15.20807,9.44196 -20.9742,16.21717 -5.76613,6.7752 -10.16274,14.63144 -13.18996,23.56894 -3.02722,8.93751 -4.5408,18.30733 -4.5408,28.10976 0,9.80242 1.51358,19.17224 4.5408,28.10975 3.02722,8.9375 7.42383,16.79374 13.18996,23.56894 5.76613,6.77521 12.82954,12.18088 21.19043,16.21717 8.36089,4.03629 17.87487,6.05441 28.54221,6.05441 10.37904,0 19.82094,-2.01812 28.32599,-6.05441 8.50504,-4.03629 15.49637,-9.51403 20.97419,-16.43339 l 27.24484,24.65009 c -8.64919,10.09073 -19.46053,17.94696 -32.43433,23.56894 -12.97379,5.62198 -27.67721,8.43293 -44.11069,8.43293 -15.85686,0 -30.4882,-2.59472 -43.89446,-7.78424 -13.40625,-5.18952 -25.01042,-12.46915 -34.81284,-21.83912 -9.80243,-9.36996 -17.51452,-20.68582 -23.13649,-33.94793 C 618.81095,338.72661 616,323.87904 616,307.44557 c 0,-16.14517 2.73887,-30.84859 8.2167,-44.11069 5.47782,-13.26211 13.11783,-24.65005 22.92026,-34.16417 9.80242,-9.51411 21.40659,-16.86582 34.81284,-22.05534 13.40626,-5.18952 27.89345,-7.78424 43.46201,-7.78424 14.41533,0 28.75837,2.88302 43.02954,8.64916 14.27118,5.76613 25.58704,14.12689 33.94793,25.08254 z m 112.43901,-20.75797 c 4.90121,-10.09073 13.26198,-18.7398 25.08255,-25.94747 11.82057,-7.20766 25.08247,-10.81144 39.78611,-10.81144 13.2621,0 24.65004,2.23434 34.16416,6.7031 9.51412,4.46875 17.44241,10.45102 23.78521,17.94699 6.3427,7.49597 11.0276,16.28919 14.0548,26.37992 3.0273,10.09073 4.5409,20.90207 4.5409,32.43433 V 409.93805 H 986.18382 V 296.63412 c 0,-8.36089 -0.64868,-16.2892 -1.94606,-23.78517 -1.29738,-7.49597 -3.67587,-14.12693 -7.13555,-19.89306 -3.45966,-5.76613 -8.14459,-10.37897 -14.05488,-13.83865 -5.91028,-3.45968 -13.62237,-5.18949 -23.13649,-5.18949 -16.14516,0 -29.40707,6.12642 -39.78611,18.37945 -10.37903,12.25303 -15.56848,28.61419 -15.56848,49.08396 V 409.93805 H 843.90523 V 83 h 40.65102 v 153.09004 z m 337.74953,41.08348 c 0,-15.28025 -4.6129,-26.59611 -13.8387,-33.94793 -9.2258,-7.35182 -21.4786,-11.02767 -36.7589,-11.02767 -11.5323,0 -22.4157,2.23434 -32.6505,6.70309 -10.2349,4.46876 -18.8119,10.16273 -25.7313,17.08208 l -21.6229,-25.94746 c 10.0908,-9.51412 22.4157,-17.00998 36.9752,-22.4878 14.5595,-5.47783 30.1998,-8.2167 46.9216,-8.2167 14.7037,0 27.461,2.09019 38.2725,6.27064 10.8115,4.18044 19.6768,9.87441 26.5962,17.08208 6.9194,7.20766 12.1088,15.71258 15.5685,25.51501 3.4597,9.80242 5.1895,20.32545 5.1895,31.56941 v 89.51875 c 0,6.91936 0.2162,14.19899 0.6487,21.83912 0.4324,7.64012 1.2252,13.9107 2.3785,18.81191 h -36.7589 c -2.3065,-9.80243 -3.4597,-19.6047 -3.4597,-29.40713 h -1.2974 c -7.4959,10.95565 -16.9378,19.46057 -28.326,25.51501 -11.3881,6.05444 -24.8662,9.08161 -40.4348,9.08161 -8.0725,0 -16.5054,-1.08113 -25.2987,-3.24343 -8.7934,-2.1623 -16.7938,-5.694 -24.0014,-10.59521 -7.2077,-4.90122 -13.19,-11.38802 -17.947,-19.4606 -4.7571,-8.07259 -7.1356,-18.01902 -7.1356,-29.83959 0,-15.56855 4.1804,-27.89348 12.5413,-36.97513 8.3609,-9.08166 19.3164,-16.00092 32.8668,-20.75798 13.5504,-4.75705 28.8304,-7.8563 45.8405,-9.29784 17.0101,-1.44153 34.1641,-2.16229 51.4625,-2.16229 z m -9.9466,35.02908 c -10.0907,0 -20.5416,0.43245 -31.3531,1.29737 -10.8115,0.86492 -20.6138,2.59474 -29.4072,5.1895 -8.7933,2.59476 -16.073,6.48684 -21.8391,11.67636 -5.7661,5.18951 -8.6491,12.10877 -8.6491,20.75797 0,6.05444 1.2252,11.09973 3.6758,15.13602 2.4507,4.03629 5.6941,7.35177 9.7303,9.94653 4.0363,2.59475 8.505,4.39665 13.4062,5.40572 4.9012,1.00907 9.9465,1.5136 15.1361,1.5136 19.0282,0 33.6595,-5.69397 43.8944,-17.08208 10.2349,-11.38811 15.3523,-25.73115 15.3523,-43.02955 V 312.2026 Z m 212.7692,-73.95027 h -54.4896 v 106.81706 c 0,12.39718 2.3064,21.26248 6.9193,26.59615 4.6129,5.33367 11.9646,8.00047 22.0553,8.00047 3.748,0 7.7843,-0.43246 12.1089,-1.29738 4.3246,-0.86492 8.2166,-2.16228 11.6763,-3.89212 l 1.2974,33.29925 c -4.9012,1.72984 -10.3069,3.09928 -16.2172,4.10835 -5.9103,1.00907 -12.0367,1.5136 -18.3794,1.5136 -19.3166,0 -34.0921,-5.33359 -44.3269,-16.00094 -10.2349,-10.66734 -15.3523,-26.66812 -15.3523,-48.0028 V 238.25233 h -39.3537 v -33.29925 h 39.3537 v -58.81425 h 40.2186 v 58.81425 h 54.4896 z m 80.0845,-33.29925 46.2729,156.5497 h 0.865 l 48.8677,-156.5497 h 42.8133 l 49.7326,156.5497 h 0.865 l 46.2729,-156.5497 h 42.8134 l -67.8959,204.98497 h -42.3809 l -50.5975,-153.95496 h -0.8649 l -50.1651,153.95496 h -42.3809 l -68.3283,-204.98497 z m 526.7335,102.06003 c 0,15.85686 -2.811,30.41613 -8.4329,43.67823 -5.622,13.2621 -13.4062,24.72212 -23.3528,34.38039 -9.9465,9.65827 -21.6948,17.15413 -35.2453,22.4878 -13.5504,5.33367 -28.1096,8.00047 -43.6782,8.00047 -15.5685,0 -30.1278,-2.6668 -43.6782,-8.00047 -13.5504,-5.33367 -25.2267,-12.82953 -35.0291,-22.4878 -9.8024,-9.65827 -17.5145,-21.11829 -23.1365,-34.38039 -5.622,-13.2621 -8.4329,-27.82137 -8.4329,-43.67823 0,-15.85686 2.8109,-30.34405 8.4329,-43.46201 5.622,-13.11795 13.3341,-24.43381 23.1365,-33.94793 9.8024,-9.51412 21.4787,-16.9379 35.0291,-22.27157 13.5504,-5.33367 28.1097,-8.00047 43.6782,-8.00047 15.5686,0 30.1278,2.6668 43.6782,8.00047 13.5505,5.33367 25.2988,12.75745 35.2453,22.27157 9.9466,9.51412 17.7308,20.82998 23.3528,33.94793 5.6219,13.11796 8.4329,27.60515 8.4329,43.46201 z m -42.3809,0 c 0,-9.80243 -1.5136,-19.17225 -4.5408,-28.10976 -3.0272,-8.9375 -7.4238,-16.79374 -13.1899,-23.56894 -5.7662,-6.77521 -12.9016,-12.18087 -21.4067,-16.21717 -8.505,-4.03629 -18.2352,-6.05441 -29.1909,-6.05441 -10.9556,0 -20.6858,2.01812 -29.1909,6.05441 -8.505,4.0363 -15.6405,9.44196 -21.4066,16.21717 -5.7662,6.7752 -10.1628,14.63144 -13.19,23.56894 -3.0272,8.93751 -4.5408,18.30733 -4.5408,28.10976 0,9.80242 1.5136,19.17225 4.5408,28.10975 3.0272,8.9375 7.4238,16.86582 13.19,23.78518 5.7661,6.91936 12.9016,12.3971 21.4066,16.43339 8.5051,4.03629 18.2353,6.05441 29.1909,6.05441 10.9557,0 20.6859,-2.01812 29.1909,-6.05441 8.5051,-4.03629 15.6405,-9.51403 21.4067,-16.43339 5.7661,-6.91936 10.1627,-14.84768 13.1899,-23.78518 3.0272,-8.9375 4.5408,-18.30733 4.5408,-28.10975 z m 306.1801,0 c 0,15.85686 -2.8109,30.41613 -8.4329,43.67823 -5.622,13.2621 -13.4062,24.72212 -23.3527,34.38039 -9.9466,9.65827 -21.6949,17.15413 -35.2453,22.4878 -13.5505,5.33367 -28.1097,8.00047 -43.6783,8.00047 -15.5685,0 -30.1278,-2.6668 -43.6782,-8.00047 -13.5504,-5.33367 -25.2267,-12.82953 -35.0291,-22.4878 -9.8024,-9.65827 -17.5145,-21.11829 -23.1365,-34.38039 -5.6219,-13.2621 -8.4329,-27.82137 -8.4329,-43.67823 0,-15.85686 2.811,-30.34405 8.4329,-43.46201 5.622,-13.11795 13.3341,-24.43381 23.1365,-33.94793 9.8024,-9.51412 21.4787,-16.9379 35.0291,-22.27157 13.5504,-5.33367 28.1097,-8.00047 43.6782,-8.00047 15.5686,0 30.1278,2.6668 43.6783,8.00047 13.5504,5.33367 25.2987,12.75745 35.2453,22.27157 9.9465,9.51412 17.7307,20.82998 23.3527,33.94793 5.622,13.11796 8.4329,27.60515 8.4329,43.46201 z m -42.3808,0 c 0,-9.80243 -1.5136,-19.17225 -4.5409,-28.10976 -3.0272,-8.9375 -7.4238,-16.79374 -13.1899,-23.56894 -5.7661,-6.77521 -12.9016,-12.18087 -21.4067,-16.21717 -8.505,-4.03629 -18.2352,-6.05441 -29.1909,-6.05441 -10.9556,0 -20.6858,2.01812 -29.1909,6.05441 -8.505,4.0363 -15.6405,9.44196 -21.4066,16.21717 -5.7662,6.7752 -10.1628,14.63144 -13.19,23.56894 -3.0272,8.93751 -4.5408,18.30733 -4.5408,28.10976 0,9.80242 1.5136,19.17225 4.5408,28.10975 3.0272,8.9375 7.4238,16.86582 13.19,23.78518 5.7661,6.91936 12.9016,12.3971 21.4066,16.43339 8.5051,4.03629 18.2353,6.05441 29.1909,6.05441 10.9557,0 20.6859,-2.01812 29.1909,-6.05441 8.5051,-4.03629 15.6406,-9.51403 21.4067,-16.43339 5.7661,-6.91936 10.1627,-14.84768 13.1899,-23.78518 3.0273,-8.9375 4.5409,-18.30733 4.5409,-28.10975 z m 198.9305,-68.76078 h -54.4897 v 106.81706 c 0,12.39718 2.3065,21.26248 6.9194,26.59615 4.6129,5.33367 11.9646,8.00047 22.0553,8.00047 3.748,0 7.7842,-0.43246 12.1088,-1.29738 4.3246,-0.86492 8.2167,-2.16228 11.6764,-3.89212 l 1.2974,33.29925 c -4.9013,1.72984 -10.3069,3.09928 -16.2172,4.10835 -5.9103,1.00907 -12.0367,1.5136 -18.3795,1.5136 -19.3165,0 -34.092,-5.33359 -44.3269,-16.00094 -10.2349,-10.66734 -15.3522,-26.66812 -15.3522,-48.0028 V 238.25233 h -39.3537 v -33.29925 h 39.3537 v -58.81425 h 40.2185 v 58.81425 h 54.4897 z"
           id="chatwoot"
           stroke="#273445"
           stroke-width="8"
           fill="#273444" />
      </g>
    </g>
  </g>
  <g
     transform="matrix(28.542037,0,0,28.542037,751.2072,12.178295)"
     fill="#49bba9"
     id="da90ccc9-d4cc-4f4f-9807-c31d6c87dd3c"
     data-v-fde0c5aa="">
    <path
       id="path42"
       d="m 12.84,3.43 v 0 0 q 0.94,0.34 0.94,0.9 v 0 0 q 0,0.18 -0.17,0.68 v 0 l -2.69,7.77 v 0 q -0.03,0.1 -0.1,0.24 v 0 0 q -0.07,0.14 -0.37,0.37 v 0 0 q -0.3,0.23 -0.71,0.23 v 0 0 q -0.42,0 -0.72,-0.23 v 0 0 q -0.3,-0.23 -0.4,-0.45 v 0 L 6.99,8.11 v 0 Q 5.43,12.7 5.4,12.78 v 0 0 q -0.02,0.09 -0.12,0.24 v 0 0 q -0.1,0.15 -0.23,0.28 v 0 0 q -0.32,0.32 -0.77,0.32 v 0 0 q -0.44,0 -0.73,-0.21 v 0 0 Q 3.26,13.2 3.16,12.99 v 0 L 3.07,12.78 0.36,5.01 v 0 Q 0.21,4.55 0.21,4.33 v 0 0 q 0,-0.56 0.94,-0.89 v 0 0 Q 1.55,3.3 1.88,3.3 v 0 0 q 0.33,0 0.51,0.23 v 0 0 Q 2.56,3.75 2.7,4.21 v 0 L 4.24,8.89 5.77,4.28 v 0 Q 5.96,3.7 6.48,3.47 v 0 0 q 0.23,-0.1 0.58,-0.1 v 0 0 q 0.36,0 0.67,0.24 v 0 0 q 0.31,0.23 0.39,0.45 v 0 l 1.61,4.86 1.54,-4.71 v 0 q 0.11,-0.32 0.18,-0.47 v 0 0 q 0.07,-0.16 0.26,-0.3 v 0 0 Q 11.9,3.29 12.18,3.29 v 0 0 q 0.28,0 0.66,0.14 z m 5.51,3.61 v 0 0 q 0.09,-0.78 1.11,-0.78 v 0 0 q 0.55,0 0.81,0.08 v 0 0 q 0.27,0.09 0.37,0.3 v 0 0 q 0.11,0.21 0.13,0.37 v 0 0 q 0.02,0.16 0.02,0.48 v 0 4.9 0 q 0,0.32 -0.02,0.48 v 0 0 q -0.02,0.16 -0.12,0.37 v 0 0 q -0.2,0.37 -0.96,0.37 v 0 0 q -0.76,0 -1.02,-0.19 v 0 0 q -0.26,-0.19 -0.3,-0.55 v 0 0 q -0.52,0.74 -1.73,0.74 v 0 0 q -1.21,0 -2.25,-1.11 v 0 0 Q 13.36,11.4 13.36,9.93 v 0 0 q 0,-1.46 1.04,-2.56 v 0 0 q 1.04,-1.1 2.29,-1.1 v 0 0 q 0.47,0 0.87,0.17 v 0 0 q 0.39,0.17 0.54,0.32 v 0 0 q 0.16,0.14 0.25,0.28 z m -2.54,2.91 v 0 0 q 0,0.47 0.36,0.84 v 0 0 q 0.36,0.37 0.88,0.37 v 0 0 q 0.52,0 0.86,-0.38 v 0 0 q 0.35,-0.38 0.35,-0.83 v 0 0 q 0,-0.46 -0.33,-0.85 v 0 0 Q 17.6,8.71 17.05,8.71 v 0 0 q -0.56,0 -0.9,0.39 v 0 0 q -0.34,0.39 -0.34,0.85 z m 9.5,-3.59 0.91,-0.09 v 0 q 0.97,0 1.14,0.53 v 0 0 q 0.08,0.27 0.08,0.7 v 0 0 q 0,0.44 -0.09,0.7 v 0 0 q -0.09,0.26 -0.29,0.37 v 0 0 q -0.29,0.17 -0.85,0.17 v 0 l -0.9,-0.06 v 3.75 0 q 0,0.53 -0.13,0.79 v 0 0 q -0.13,0.26 -0.41,0.35 v 0 0 q -0.27,0.08 -0.7,0.08 v 0 0 q -0.44,0 -0.7,-0.09 v 0 0 Q 23.11,13.47 23,13.27 v 0 0 q -0.11,-0.21 -0.13,-0.38 v 0 0 Q 22.85,12.73 22.85,12.4 v 0 -3.71 h -0.51 v 0 Q 21.98,8.67 21.83,8.53 v 0 0 Q 21.56,8.26 21.56,7.5 v 0 0 q 0,-1.14 0.83,-1.14 v 0 h 0.46 v -0.75 0 q 0,-1.07 0.77,-1.95 v 0 0 q 0.77,-0.87 2.22,-0.87 v 0 0 q 0.33,0 0.49,0.02 v 0 0 q 0.16,0.02 0.37,0.13 v 0 0 q 0.38,0.18 0.38,1.08 v 0 0 q 0,0.67 -0.24,0.96 v 0 0 q -0.2,0.23 -0.62,0.26 v 0 0 q -0.12,0 -0.39,0 v 0 0 q -0.52,0 -0.52,0.35 v 0 z m 10.33,0.07 v 0 0 q 0.73,0.43 0.73,0.92 v 0 0 q 0,0.28 -0.28,0.77 v 0 l -2.9,4.97 v 0 q -0.14,0.24 -0.44,0.43 v 0 0 q -0.31,0.19 -0.61,0.19 v 0 0 q -0.3,0 -0.58,-0.15 v 0 0 q -0.27,-0.15 -0.38,-0.3 v 0 L 31.05,13.1 28.14,8.12 v 0 Q 27.86,7.66 27.86,7.36 v 0 0 q 0,-0.5 0.73,-0.93 v 0 0 q 0.53,-0.31 0.84,-0.31 v 0 0 q 0.31,0 0.48,0.19 v 0 0 q 0.18,0.19 0.37,0.56 v 0 l 1.84,3.53 1.83,-3.53 v 0 Q 34.1,6.61 34.18,6.49 v 0 0 q 0.08,-0.12 0.25,-0.24 v 0 0 q 0.16,-0.12 0.44,-0.12 v 0 0 q 0.28,0 0.77,0.3 z m 8.19,2.64 v 0 0 q 0,0.86 -0.42,1.27 v 0 0 q -0.43,0.41 -0.95,0.41 v 0 h -3.32 v 0 q 0,0.39 0.47,0.66 v 0 0 q 0.46,0.27 0.92,0.27 v 0 0 q 0.81,0 1.27,-0.17 v 0 l 0.16,-0.06 v 0 q 0.33,-0.15 0.56,-0.15 v 0 0 q 0.45,0 0.77,0.63 v 0 0 q 0.18,0.38 0.18,0.64 v 0 0 q 0,1.25 -2.98,1.25 v 0 0 q -1.04,0 -1.84,-0.36 v 0 0 Q 37.84,13.1 37.39,12.52 v 0 0 Q 36.51,11.38 36.51,9.98 v 0 0 q 0,-1.76 1.14,-2.82 v 0 0 Q 38.79,6.1 40.5,6.1 v 0 0 q 1.95,0 2.86,1.38 v 0 0 q 0.47,0.72 0.47,1.59 z m -4.71,0.41 h 1.76 v 0 q 0.53,0 0.53,-0.45 v 0 0 q 0,-0.32 -0.24,-0.52 v 0 0 Q 40.92,8.32 40.47,8.32 v 0 0 q -0.46,0 -0.91,0.37 v 0 0 q -0.44,0.37 -0.44,0.79 z m 5.62,1.2 v -6.66 0 q 0,-0.32 0.03,-0.48 v 0 0 q 0.02,-0.17 0.11,-0.38 v 0 0 q 0.2,-0.37 1.1,-0.37 v 0 0 q 0.85,0 1.06,0.37 v 0 0 q 0.11,0.21 0.13,0.38 v 0 0 q 0.02,0.17 0.02,0.49 v 0 6.48 0 q 0,0.51 0.09,0.64 v 0 0 q 0.08,0.13 0.37,0.13 v 0 0 q 0.29,0 0.38,0.03 v 0 0 q 0.1,0.02 0.24,0.11 v 0 0 q 0.28,0.19 0.28,1 v 0 0 q 0,0.88 -0.28,1.08 v 0 0 q -0.36,0.25 -1.73,0.08 v 0 0 q -1.08,-0.14 -1.4,-0.71 v 0 0 q -0.4,-0.69 -0.4,-2.19 z" />
  </g>
  <g
     transform="matrix(5.3013457,0,0,5.3013457,181.77711,2.0666281)"
     fill="url(#40e221f5-a657-4248-abe4-724ce42de324)"
     stroke="none"
     id="d7ebbc6a-41bf-4a8d-b86d-8891fa0522c0"
     data-v-fde0c5aa=""
     style="fill:url(#linearGradient80)">
    <path
       id="path52"
       d="m 48,6.25 a 38.477,38.477 0 0 0 -20.361,5.798 l -0.544,0.338 C 15.99,19.535 9.354,31.691 9.354,44.897 c 0,16.039 9.654,30.171 24.596,36.003 l 1.394,0.544 -1.27,0.792 a 39.883,39.883 0 0 1 -17.029,5.817 38.53,38.53 0 0 0 11.362,1.697 c 7.445,0 14.67,-2.12 20.895,-6.129 l 0.171,-0.11 0.204,-0.009 C 70.408,82.631 86.649,65.674 86.649,44.898 86.647,23.587 69.311,6.25 48,6.25 Z m -26.342,23.083 1.061,-1.061 8.67,8.669 -8.67,8.671 -1.061,-1.061 7.609,-7.61 z m 0.53,25.015 h 3.193 v 1.5 h -3.193 z m 9.848,7.078 h -9.847 v -1.5 h 9.847 z m 0,-11.158 h -9.847 v -1.5 h 9.847 z m 3.227,5.58 h -2.582 v -1.5 h 2.582 z M 64.11,32.051 h 1.916 v 1.5 H 64.11 Z m 0,8.282 h 1.916 v 1.5 H 64.11 Z M 47.356,32.051 h 10.883 v 1.5 H 47.356 Z m 14.6,4.14 v 1.5 H 51.075 v -1.5 z m -18.669,0 h 1.917 v 1.5 h -1.917 z m 9.541,12.577 v 1.5 H 38.164 v -1.5 z M 35.5,32.051 h 7.309 v 1.5 H 35.5 Z m 0,4.14 h 2.371 v 1.5 H 35.5 Z m 0,4.142 h 7.309 v 1.5 H 35.5 Z m 10.163,21.093 h -7.499 v -1.5 h 7.499 z M 57.836,55.848 H 43.174 v -1.5 H 57.836 Z M 58.239,41.833 H 47.356 v -1.5 h 10.883 z m 5.081,19.593 h -2.582 v -1.5 h 2.582 z m 0,-11.158 h -2.582 v -1.5 H 63.32 Z M 73.813,61.426 H 70.62 v -1.5 h 3.192 v 1.5 z m 0,-5.578 h -9.846 v -1.5 h 9.846 z m 0,-5.58 H 70.62 v -1.5 h 3.192 v 1.5 z m 0,-8.435 h -2.369 v -1.5 h 2.369 z m 0,-4.142 h -7.308 v -1.5 h 7.308 z m 0,-4.14 h -2.369 v -1.5 h 2.369 z"
       style="fill:url(#linearGradient78)" />
  </g>
  <g
     transform="matrix(4.1011264,0,0,4.1011264,841.0578,411.61462)"
     fill="#000000"
     id="21d17eee-6648-492a-a8fe-05a1c66cf2b2"
     data-v-fde0c5aa="">
    <path
       id="path57"
       d="m 6.59,9.21 v -0.5 0 q 0,-0.48 -0.18,-0.84 v 0 0 Q 6.22,7.5 5.89,7.27 v 0 0 Q 5.57,7.03 5.15,6.9 v 0 0 Q 4.73,6.78 4.27,6.78 v 0 0 q -0.41,0 -0.77,0.1 v 0 0 Q 3.14,6.99 2.85,7.18 v 0 0 Q 2.56,7.38 2.39,7.66 v 0 0 Q 2.23,7.95 2.23,8.33 v 0 0.08 0 q 0,0.41 0.16,0.7 v 0 0 q 0.17,0.28 0.5,0.49 v 0 0 q 0.33,0.2 0.82,0.33 v 0 0 q 0.49,0.14 1.15,0.23 v 0 0 q 1.54,0.24 2.27,0.91 v 0 0 q 0.72,0.66 0.72,1.78 v 0 0.17 0 q 0,0.63 -0.21,1.15 v 0 0 Q 7.42,14.7 6.99,15.08 v 0 0 q -0.42,0.38 -1.05,0.59 v 0 0 q -0.63,0.21 -1.46,0.21 v 0 0 q -0.94,0 -1.66,-0.28 v 0 0 Q 2.1,15.33 1.62,14.85 v 0 0 Q 1.13,14.36 0.88,13.71 v 0 0 Q 0.63,13.06 0.63,12.29 v 0 -0.42 h 1.18 v 0.34 0 q 0,1.29 0.7,1.93 v 0 0 q 0.71,0.64 1.97,0.64 v 0 0 q 1.09,0 1.65,-0.48 v 0 0 q 0.55,-0.48 0.55,-1.28 v 0 -0.08 0 q 0,-0.77 -0.57,-1.18 v 0 0 Q 5.54,11.35 4.27,11.17 v 0 0 q -0.74,-0.1 -1.34,-0.3 v 0 0 Q 2.34,10.67 1.92,10.34 v 0 0 Q 1.5,10.01 1.27,9.55 v 0 0 Q 1.05,9.09 1.05,8.46 v 0 -0.17 0 q 0,-0.58 0.24,-1.05 v 0 0 Q 1.53,6.76 1.95,6.41 v 0 0 Q 2.38,6.06 2.98,5.87 v 0 0 Q 3.57,5.68 4.28,5.68 v 0 0 q 0.83,0 1.48,0.24 v 0 0 q 0.65,0.24 1.1,0.64 v 0 0 q 0.45,0.4 0.68,0.94 v 0 0 q 0.23,0.54 0.23,1.12 v 0 0.59 z m 13.32,5.57 v 0 0 q 0.6,0 1.03,-0.2 v 0 0 q 0.42,-0.2 0.7,-0.54 v 0 0 q 0.27,-0.35 0.4,-0.79 v 0 0 q 0.14,-0.44 0.14,-0.93 v 0 -0.17 h 1.17 v 0.17 0 q 0,0.74 -0.22,1.39 v 0 0 q -0.23,0.65 -0.66,1.14 v 0 0 q -0.43,0.48 -1.08,0.75 v 0 0 q -0.64,0.28 -1.48,0.28 v 0 0 q -1.63,0 -2.54,-1.03 v 0 0 q -0.91,-1.02 -0.91,-2.98 v 0 -2.18 0 q 0,-1.91 0.91,-2.96 v 0 0 q 0.91,-1.05 2.54,-1.05 v 0 0 q 0.84,0 1.48,0.28 v 0 0 q 0.65,0.27 1.08,0.75 v 0 0 q 0.43,0.49 0.66,1.14 v 0 0 q 0.22,0.65 0.22,1.39 v 0 0.17 h -1.17 v -0.17 0 Q 22.16,8.76 22.03,8.32 v 0 0 Q 21.9,7.87 21.62,7.53 v 0 0 Q 21.35,7.18 20.93,6.98 v 0 0 q -0.42,-0.2 -1.02,-0.2 v 0 0 q -1.14,0 -1.7,0.82 v 0 0 q -0.57,0.83 -0.57,2.17 v 0 2.02 0 q 0,1.44 0.57,2.22 v 0 0 q 0.56,0.77 1.7,0.77 z m 18.32,0.9 -0.71,-2.44 h -4.2 l -0.71,2.44 h -1.26 l 2.96,-9.8 h 2.22 l 2.96,9.8 z M 35.5,6.38 h -0.16 l -1.7,5.77 h 3.56 z m 14.58,-0.5 2.83,9.3 h 0.16 v -9.3 h 1.18 v 9.8 H 51.9 L 49.07,6.38 H 48.9 v 9.3 h -1.17 v -9.8 z m 35.88,4.34 v 1.09 H 84.6 v 4.37 h -3.13 v 0 q -0.7,0 -1.25,-0.2 v 0 0 q -0.55,-0.19 -0.91,-0.53 v 0 0 Q 78.95,14.6 78.76,14.13 v 0 0 q -0.19,-0.47 -0.19,-1.01 v 0 -0.17 0 q 0,-0.8 0.47,-1.35 v 0 0 q 0.48,-0.55 1.18,-0.75 v 0 -0.17 0 Q 79.52,10.5 79.04,9.95 v 0 0 Q 78.57,9.39 78.57,8.6 v 0 -0.17 0 q 0,-0.55 0.19,-1.02 v 0 0 q 0.19,-0.47 0.55,-0.8 v 0 0 q 0.36,-0.34 0.91,-0.53 v 0 0 q 0.55,-0.2 1.25,-0.2 v 0 h 1.79 v 1.09 h -1.71 v 0 q -0.83,0 -1.34,0.41 v 0 0 Q 79.69,7.8 79.69,8.51 v 0 0.09 0 q 0,0.75 0.49,1.19 v 0 0 q 0.49,0.43 1.33,0.43 v 0 h 1.92 V 8.74 h 1.17 v 1.48 z m -4.41,4.37 h 1.88 v -3.28 h -1.92 v 0 q -0.84,0 -1.33,0.44 v 0 0 q -0.49,0.44 -0.49,1.2 v 0 0.08 0 q 0,0.73 0.52,1.14 v 0 0 q 0.51,0.42 1.34,0.42 z m 34.52,1.09 -0.71,-2.44 h -4.2 l -0.71,2.44 h -1.26 l 2.96,-9.8 h 2.22 l 2.96,9.8 z m -2.73,-9.3 h -0.16 l -1.7,5.77 h 3.56 z m 12.13,-0.5 h 1.17 v 6.5 0 q 0,1.19 0.56,1.79 v 0 0 q 0.55,0.61 1.63,0.61 v 0 0 q 1.08,0 1.63,-0.61 v 0 0 q 0.55,-0.6 0.55,-1.79 v 0 -6.5 h 1.18 v 6.5 0 q 0,1.7 -0.9,2.6 v 0 0 q -0.89,0.9 -2.46,0.9 v 0 0 q -1.57,0 -2.47,-0.9 v 0 0 q -0.89,-0.9 -0.89,-2.6 v 0 z m 15.48,1.09 V 5.88 h 6.89 v 1.09 h -2.86 v 8.71 h -1.17 V 6.97 Z m 15.57,4.9 v -2.18 0 q 0,-1.91 0.91,-2.96 v 0 0 q 0.91,-1.05 2.53,-1.05 v 0 0 q 1.63,0 2.54,1.05 v 0 0 q 0.91,1.05 0.91,2.96 v 0 2.18 0 q 0,1.96 -0.91,2.98 v 0 0 q -0.91,1.03 -2.54,1.03 v 0 0 q -1.62,0 -2.53,-1.03 v 0 0 q -0.91,-1.02 -0.91,-2.98 z m 3.44,2.91 v 0 0 q 1.14,0 1.71,-0.77 v 0 0 q 0.56,-0.78 0.56,-2.22 v 0 -2.02 0 q 0,-1.34 -0.56,-2.17 v 0 0 Q 161.1,6.78 159.96,6.78 v 0 0 q -1.13,0 -1.7,0.82 v 0 0 q -0.56,0.83 -0.56,2.17 v 0 2.02 0 q 0,1.44 0.56,2.22 v 0 0 q 0.57,0.77 1.7,0.77 z m 11.93,0.9 v -9.8 h 2.24 l 1.32,9.3 h 0.17 l 1.31,-9.3 h 2.24 v 9.8 h -1.09 v -9.3 h -0.17 l -1.31,9.3 h -2.13 l -1.32,-9.3 h -0.17 v 9.3 z m 22.02,0 -0.71,-2.44 H 189 l -0.71,2.44 h -1.26 l 2.96,-9.8 h 2.22 l 2.96,9.8 z m -2.73,-9.3 h -0.16 l -1.7,5.77 h 3.56 z m 12.04,0.59 V 5.88 h 6.89 v 1.09 h -2.85 v 8.71 h -1.18 V 6.97 Z m 16.05,8.71 v -9.8 h 5.93 v 1.09 h -4.76 v 3.25 h 4.68 v 1.09 h -4.68 v 3.28 h 4.85 v 1.09 z" />
  </g>
  <g
     data-v-fde0c5aa=""
     id="g91"
     fill="#000000"
     transform="matrix(4.1011264,0,0,4.1011264,1517.1717,409.15326)">
    <text
       transform="matrix(1.0350999,0,0,1.0350999,186.58721,209.8869)"
       style="font-style:normal;font-weight:normal;font-size:9.75342px;line-height:1.25;font-family:sans-serif;white-space:pre;shape-inside:url(#rect95);fill:#000000;fill-opacity:1;stroke:none;"
       id="text93"
       xml:space="preserve"><tspan
         x="-96.195312"
         y="-187.37442"><tspan>Powered By</tspan></tspan></text>
  </g>
</svg>
