<?xml version="1.0" encoding="UTF-8" standalone="no"?>
<svg
   xmlns:dc="http://purl.org/dc/elements/1.1/"
   xmlns:cc="http://creativecommons.org/ns#"
   xmlns:rdf="http://www.w3.org/1999/02/22-rdf-syntax-ns#"
   xmlns:svg="http://www.w3.org/2000/svg"
   xmlns="http://www.w3.org/2000/svg"
   xmlns:xlink="http://www.w3.org/1999/xlink"
   xmlns:sodipodi="http://sodipodi.sourceforge.net/DTD/sodipodi-0.dtd"
   xmlns:inkscape="http://www.inkscape.org/namespaces/inkscape"
   inkscape:version="1.0 (1.0+r73+1)"
   sodipodi:docname="logo_thumbnail.svg"
   id="svg10"
   version="1.1"
   viewBox="0 0 512 512"
   height="512px"
   width="512px">
  <metadata
     id="metadata16">
    <rdf:RDF>
      <cc:Work
         rdf:about="">
        <dc:format>image/svg+xml</dc:format>
        <dc:type
           rdf:resource="http://purl.org/dc/dcmitype/StillImage" />
      </cc:Work>
    </rdf:RDF>
  </metadata>
  <defs
     id="defs14">
    <linearGradient
       data-v-fde0c5aa=""
       gradientTransform="rotate(25)"
       id="40e221f5-a657-4248-abe4-724ce42de324"
       x1="0%"
       y1="0%"
       x2="100%"
       y2="0%">
      <stop
         data-v-fde0c5aa=""
         offset="0%"
         stop-color="#83E3D4"
         stop-opacity="1"
         id="stop27" />
      <stop
         data-v-fde0c5aa=""
         offset="100%"
         stop-color="#49BBA9"
         stop-opacity="1"
         id="stop29" />
    </linearGradient>
    <linearGradient
       gradientUnits="userSpaceOnUse"
       y2="6.0132617"
       x2="90.05986"
       y1="6.0132617"
       x1="9.7222118"
       gradientTransform="scale(0.96212674,1.0393641)"
       id="linearGradient60"
       xlink:href="#40e221f5-a657-4248-abe4-724ce42de324"
       inkscape:collect="always" />
    <linearGradient
       gradientUnits="userSpaceOnUse"
       y2="6.0132617"
       x2="90.05986"
       y1="6.0132617"
       x1="9.7222118"
       gradientTransform="scale(0.96212674,1.0393641)"
       id="linearGradient62"
       xlink:href="#40e221f5-a657-4248-abe4-724ce42de324"
       inkscape:collect="always" />
  </defs>
  <sodipodi:namedview
     inkscape:current-layer="svg10"
     inkscape:window-maximized="1"
     inkscape:window-y="795"
     inkscape:window-x="40"
     inkscape:cy="211.75728"
     inkscape:cx="536.13765"
     inkscape:zoom="0.60076455"
     showgrid="false"
     id="namedview12"
     inkscape:window-height="1016"
     inkscape:window-width="1880"
     inkscape:pageshadow="2"
     inkscape:pageopacity="0"
     guidetolerance="10"
     gridtolerance="10"
     objecttolerance="10"
     borderopacity="1"
     bordercolor="#666666"
     pagecolor="#ffffff" />
  <!-- Generator: Sketch 59.1 (86144) - https://sketch.com -->
  <title
     id="title2">woot-log</title>
  <desc
     id="desc4">Created with Sketch.</desc>
  <g
     transform="matrix(5.7157712,0,0,5.7157712,-13.461312,-10.387226)"
     fill="url(#40e221f5-a657-4248-abe4-724ce42de324)"
     stroke="none"
     id="d7ebbc6a-41bf-4a8d-b86d-8891fa0522c0"
     data-v-fde0c5aa=""
     style="fill:url(#linearGradient62)">
    <path
       id="path34"
       d="m 48,6.25 a 38.477,38.477 0 0 0 -20.361,5.798 l -0.544,0.338 C 15.99,19.535 9.354,31.691 9.354,44.897 c 0,16.039 9.654,30.171 24.596,36.003 l 1.394,0.544 -1.27,0.792 a 39.883,39.883 0 0 1 -17.029,5.817 38.53,38.53 0 0 0 11.362,1.697 c 7.445,0 14.67,-2.12 20.895,-6.129 l 0.171,-0.11 0.204,-0.009 C 70.408,82.631 86.649,65.674 86.649,44.898 86.647,23.587 69.311,6.25 48,6.25 Z m -26.342,23.083 1.061,-1.061 8.67,8.669 -8.67,8.671 -1.061,-1.061 7.609,-7.61 z m 0.53,25.015 h 3.193 v 1.5 h -3.193 z m 9.848,7.078 h -9.847 v -1.5 h 9.847 z m 0,-11.158 h -9.847 v -1.5 h 9.847 z m 3.227,5.58 h -2.582 v -1.5 h 2.582 z M 64.11,32.051 h 1.916 v 1.5 H 64.11 Z m 0,8.282 h 1.916 v 1.5 H 64.11 Z M 47.356,32.051 h 10.883 v 1.5 H 47.356 Z m 14.6,4.14 v 1.5 H 51.075 v -1.5 z m -18.669,0 h 1.917 v 1.5 h -1.917 z m 9.541,12.577 v 1.5 H 38.164 v -1.5 z M 35.5,32.051 h 7.309 v 1.5 H 35.5 Z m 0,4.14 h 2.371 v 1.5 H 35.5 Z m 0,4.142 h 7.309 v 1.5 H 35.5 Z m 10.163,21.093 h -7.499 v -1.5 h 7.499 z M 57.836,55.848 H 43.174 v -1.5 H 57.836 Z M 58.239,41.833 H 47.356 v -1.5 h 10.883 z m 5.081,19.593 h -2.582 v -1.5 h 2.582 z m 0,-11.158 h -2.582 v -1.5 H 63.32 Z M 73.813,61.426 H 70.62 v -1.5 h 3.192 v 1.5 z m 0,-5.578 h -9.846 v -1.5 h 9.846 z m 0,-5.58 H 70.62 v -1.5 h 3.192 v 1.5 z m 0,-8.435 h -2.369 v -1.5 h 2.369 z m 0,-4.142 h -7.308 v -1.5 h 7.308 z m 0,-4.14 h -2.369 v -1.5 h 2.369 z"
       style="fill:url(#linearGradient60)" />
  </g>
</svg>
